{
  "asset": {
    "generator": "Khronos glTF Blender I/O v1.8.19",
    "version": "2.0"
  },
  "scene": 0,
  "scenes": [
    {
      "extras": {
        "env": [
          {
            "type": "light",
            "name": "DefaultLight",
            "intensity": 1.6,
            "color": [
              255,
              255,
              255
            ],
            "position": [
              0,
              5,
              5
            ]
          },
          {
            "type": "light",
            "name": "DefaultLight",
            "intensity": 1.6,
            "color": [
              255,
              255,
              255
            ],
            "position": [
              0,
              5,
              5
            ]
          },
          {
            "type": "environment",
            "file": "/img/HDRI_sea.hdr",
            "intensity": 0.6,
            "background": true
          }
        ],
        "jewelcraft": {
          "weighting_materials": {
            "coll": [
              {
                "name": "Yellow Gold 24K",
                "composition": "Au 99.9%",
                "density": 19.32
              },
              {
                "name": "Yellow Gold 22K",
                "composition": "Au 91.6%, Ag 4.9%, Cu 3.5%",
                "density": 17.86
              },
              {
                "name": "Yellow Gold 18K",
                "composition": "Au 75.3%, Ag 16.5%, Cu 6.7%, Zn 1.5%",
                "density": 15.53
              },
              {
                "name": "Yellow Gold 14K",
                "composition": "Au 58.4%, Ag 9.8%, Cu 28%, Zn 3.8%",
                "density": 13.05
              },
              {
                "name": "Yellow Gold 10K",
                "composition": "Au 41.7%, Ag 11.2%, Cu 40.5%, Zn 6.6%",
                "density": 11.47
              },
              {
                "name": "White Gold 18K Pd",
                "composition": "Au 78.7%, Cu 8.3%, Pd 13%",
                "density": 15.66
              },
              {
                "name": "White Gold 18K Ni",
                "composition": "Au 75.15%, Cu 8.75%, Ni 12%, Zn 4.1%",
                "density": 14.69
              },
              {
                "name": "White Gold 14K Pd",
                "composition": "Au 58.55%, Cu 7.2%, Ag 20%, Pd 13.5%, Zn 0.75%",
                "density": 14.6
              },
              {
                "name": "White Gold 14K Ni",
                "composition": "Au 58.43%, Cu 21%, Ni 12.73%, Zn 7.84%",
                "density": 12.61
              },
              {
                "name": "White Gold 10K",
                "composition": "Au 41.7%, Cu 35.7%, Ni 10.3%, Zn 12.3%",
                "density": 10.99
              },
              {
                "name": "Rose Gold 18K",
                "composition": "Au 75.3%, Cu 23.3%, Ag 1.2%, Zn 0.2%",
                "density": 15.02
              },
              {
                "name": "Rose Gold 14K",
                "composition": "Au 58.4%, Cu 39.2%, Ag 2%, Zn 0.4%",
                "density": 13.03
              },
              {
                "name": "Rose Gold 10K",
                "composition": "Au 41.5%, Cu 55%, Ag 3%, Zn 0.5%",
                "density": 11.52
              },
              {
                "name": "Platinum 950",
                "composition": "Pt 95%, Ru 5%",
                "density": 20.7
              },
              {
                "name": "Platinum 900",
                "composition": "Pt 90%, Ir 10%",
                "density": 21.54
              },
              {
                "name": "Palladium 950",
                "composition": "Pd 95%, Ru 5%",
                "density": 12.16
              },
              {
                "name": "Silver Sterling",
                "composition": "Ag 92.5%, Cu 7.5%",
                "density": 10.36
              }
            ],
            "index": 0
          }
        }
      },
      "name": "Scene",
      "nodes": [
        0
      ]
    }
  ],
  "nodes": [
    {
      "mesh": 0,
      "name": "default"
    }
  ],
  "materials": [
    {
      "doubleSided": true,
      "name": "default_1",
      "pbrMetallicRoughness": {
        "baseColorTexture": {
          "index": 0
        },
        "metallicFactor": 0,
        "roughnessFactor": 0.9200787544250488
      }
    },
    {
      "doubleSided": true,
      "name": "default_2",
      "pbrMetallicRoughness": {
        "metallicFactor": 0,
        "roughnessFactor": 0.18503937125205994
      }
    },
    {
      "doubleSided": true,
      "name": "default_3",
      "pbrMetallicRoughness": {
        "baseColorTexture": {
          "index": 1
        },
        "metallicFactor": 0,
        "roughnessFactor": 0.9200787544250488
      }
    }
  ],
  "meshes": [
    {
      "name": "default",
      "primitives": [
        {
          "attributes": {
            "POSITION": 0,
            "NORMAL": 1,
            "TEXCOORD_0": 2
          },
          "indices": 3,
          "material": 0
        },
        {
          "attributes": {
            "POSITION": 4,
            "NORMAL": 5,
            "TEXCOORD_0": 6
          },
          "indices": 7,
          "material": 1
        },
        {
          "attributes": {
            "POSITION": 8,
            "NORMAL": 9,
            "TEXCOORD_0": 10
          },
          "indices": 11,
          "material": 2
        }
      ]
    }
  ],
  "accessors": [
    {
      "bufferView": 0,
      "componentType": 5126,
      "count": 10272,
      "max": [
        1.556713581085205,
        -0.06678885221481323,
        0.06786132603883743
      ],
      "min": [
        -1.5570392608642578,
        -0.5252107381820679,
        -2.010319232940674
      ],
      "type": "VEC3"
    },
    {
      "bufferView": 1,
      "componentType": 5126,
      "count": 10272,
      "type": "VEC3"
    },
    {
      "bufferView": 2,
      "componentType": 5126,
      "count": 10272,
      "type": "VEC2"
    },
    {
      "bufferView": 3,
      "componentType": 5123,
      "count": 12408,
      "type": "SCALAR"
    },
    {
      "bufferView": 5,
      "componentType": 5126,
      "count": 20643,
      "max": [
        1.5878856182098389,
        0.37908387184143066,
        0.12944097816944122
      ],
      "min": [
        -1.5882118940353394,
        -0.9594748020172119,
        -2.0109145641326904
      ],
      "type": "VEC3"
    },
    {
      "bufferView": 6,
      "componentType": 5126,
      "count": 20643,
      "type": "VEC3"
    },
    {
      "bufferView": 7,
      "componentType": 5126,
      "count": 20643,
      "type": "VEC2"
    },
    {
      "bufferView": 8,
      "componentType": 5123,
      "count": 31842,
      "type": "SCALAR"
    },
    {
      "bufferView": 9,
      "componentType": 5126,
      "count": 11220,
      "max": [
        0.9898890852928162,
        -0.6254191398620605,
        -0.030355948954820633
      ],
      "min": [
        -0.9902143478393555,
        -0.954472541809082,
        -1.9309242963790894
      ],
      "type": "VEC3"
    },
    {
      "bufferView": 10,
      "componentType": 5126,
      "count": 11220,
      "type": "VEC3"
    },
    {
      "bufferView": 11,
      "componentType": 5126,
      "count": 11220,
      "type": "VEC2"
    },
    {
      "bufferView": 12,
      "componentType": 5123,
      "count": 17310,
      "type": "SCALAR"
    }
  ],
  "bufferViews": [
    {
      "buffer": 0,
      "byteLength": 123264,
      "byteOffset": 0
    },
    {
      "buffer": 0,
      "byteLength": 123264,
      "byteOffset": 123264
    },
    {
      "buffer": 0,
      "byteLength": 82176,
      "byteOffset": 246528
    },
    {
      "buffer": 0,
      "byteLength": 24816,
      "byteOffset": 328704
    },
    {
      "buffer": 0,
      "byteLength": 100411,
      "byteOffset": 353520
    },
    {
      "buffer": 0,
      "byteLength": 247716,
      "byteOffset": 453932
    },
    {
      "buffer": 0,
      "byteLength": 247716,
      "byteOffset": 701648
    },
    {
      "buffer": 0,
      "byteLength": 165144,
      "byteOffset": 949364
    },
    {
      "buffer": 0,
      "byteLength": 63684,
      "byteOffset": 1114508
    },
    {
      "buffer": 0,
      "byteLength": 134640,
      "byteOffset": 1178192
    },
    {
      "buffer": 0,
      "byteLength": 134640,
      "byteOffset": 1312832
    },
    {
      "buffer": 0,
      "byteLength": 89760,
      "byteOffset": 1447472
    },
    {
      "buffer": 0,
      "byteLength": 34620,
      "byteOffset": 1537232
    },
    {
      "buffer": 0,
      "byteLength": 144705,
      "byteOffset": 1571852
    }
  ],
  "buffers": [
    {
      "byteLength": 1716560,
      "uri": "data:application/octet-stream;base64,"
    }
  ],
  "extras": {
    "lastUpdatedFrom": "sphere.gltf"
  },
  "textures": [
    {
      "sampler": 0,
      "source": 0
    },
    {
      "sampler": 0,
      "source": 1
    }
  ],
  "images": [
    {
      "bufferView": 4,
      "mimeType": "image/jpeg",
      "name": "Image_0"
    },
    {
      "bufferView": 13,
      "mimeType": "image/jpeg",
      "name": "-_7"
    }
  ]
}